<svg width="36" height="36" fill="none" xmlns="http://www.w3.org/2000/svg"><path d="M18 .5C27.665.5 35.5 8.335 35.5 18S27.665 35.5 18 35.5.5 27.665.5 18 8.335.5 18 .5Z" stroke="#CCC"/><path d="M26.038 12.404c-.08.247-.182.478-.303.695l.066-.027 1.597-.691-.986 1.434a7.715 7.715 0 0 1-1.544 1.66c.003.06.007.12.007.181 0 1.583-.386 3.108-1.148 4.57-.788 1.554-1.898 2.797-3.327 3.721-1.567 1.038-3.362 1.553-5.369 1.553-1.928 0-3.699-.517-5.302-1.549l.316-.918c.21.02.456.03.736.03a5.99 5.99 0 0 0 2.761-.649 3.523 3.523 0 0 1-.894-.503 3.764 3.764 0 0 1-1.311-1.851l-.235-.727.25.024a4.172 4.172 0 0 1-.33-.351 3.645 3.645 0 0 1-.866-2.381v-.938l.4.235a3.66 3.66 0 0 1-.4-1.688c0-.669.184-1.303.54-1.897l.371-.62.45.565a8.546 8.546 0 0 0 2.82 2.304c.94.482 1.932.78 2.978.897a5.047 5.047 0 0 1-.003-.202c0-.67.169-1.303.503-1.888a3.712 3.712 0 0 1 1.37-1.387 3.67 3.67 0 0 1 1.878-.506c.546 0 1.061.107 1.538.327.373.172.712.393 1.016.66a6.142 6.142 0 0 0 1.694-.67l1.13-.655-.403 1.242Z" stroke="#CCC"/></svg>