<svg width="36" height="36" fill="none" xmlns="http://www.w3.org/2000/svg"><path d="M18 .5C27.665.5 35.5 8.335 35.5 18S27.665 35.5 18 35.5.5 27.665.5 18 8.335.5 18 .5Z" stroke="#CCC"/><path d="M10.79 12.5c.332 0 .673.08.93.328.222.215.362.538.463.878l.255.729c.178.482.373.959.586 1.43l.332.7.002.004.31.61c.308.576.61 1.055.908 1.441.193.25.35.42.473.525.004-.061.008-.135.008-.22V15.68a2.338 2.338 0 0 0-.2-.856l-.011-.025a2.033 2.033 0 0 0-.284-.462c-.178-.23-.353-.519-.353-.832 0-.284.117-.532.316-.72.196-.184.441-.286.714-.286h3.284c.266 0 .563.072.774.303l.085.11.057.099c.12.24.149.536.149.813v4.35l.002.062c.077-.056.218-.182.425-.424.422-.497.853-1.12 1.289-1.875.296-.533.582-1.116.857-1.75l.006-.013.352-.75a1.51 1.51 0 0 1 .504-.671c.246-.178.534-.254.832-.254h2.084c.34 0 .73.08.978.401.246.32.226.718.142 1.048h-.001c-.096.466-.416 1.147-.896 1.997-.356.63-.781 1.359-1.277 2.186l-.005.008-.006.008a126.265 126.265 0 0 1-.621.944l-.043.062-.01.011a1.43 1.43 0 0 0-.111.21l-.01.031.031.057c.015.023.035.05.06.08l.3.356c.854.932 1.529 1.727 2.02 2.383.42.562.731 1.056.892 1.465l.06.171.003.015.004.015c.088.375.08.788-.183 1.12-.256.32-.633.432-1.01.432h-2.083c-.383 0-.729-.133-1.025-.377a2.93 2.93 0 0 1-.341-.32c-.136-.144-.298-.328-.484-.551-.36-.432-.677-.793-.95-1.084h-.002c-.456-.459-.836-.788-1.144-1-.326-.222-.506-.267-.574-.268l-.026.002c-.002.027-.004.06-.004.098v.033l-.004.033c-.018.136-.031.488-.031 1.096v.976c.022.375-.066.775-.41 1.036l-.006.005-.007.004c-.193.136-.436.21-.679.253-.25.045-.547.064-.881.064-1.217 0-2.425-.386-3.618-1.125-1.202-.745-2.24-1.801-3.122-3.152v-.001a23.356 23.356 0 0 1-2.048-3.55v-.001a23.723 23.723 0 0 1-1.044-2.563l-.005-.015-.115-.457c-.097-.417-.153-.756-.153-.998 0-.304.087-.62.342-.85.245-.221.564-.288.864-.288h2.084Z" stroke="#CCC"/></svg>